<?xml version="1.0" encoding="UTF-8" standalone="no"?>
<svg width="455px" height="210px" viewBox="0 0 455 210" version="1.1" xmlns="http://www.w3.org/2000/svg" xmlns:xlink="http://www.w3.org/1999/xlink" xmlns:sketch="http://www.bohemiancoding.com/sketch/ns">
    <!-- Generator: Sketch 3.3.3 (12072) - http://www.bohemiancoding.com/sketch -->
    <title>logo</title>
    <desc>Created with Sketch.</desc>
    <defs></defs>
    <g id="Page-1" stroke="none" stroke-width="1" fill="none" fill-rule="evenodd" sketch:type="MSPage">
        <g id="logo" sketch:type="MSArtboardGroup" fill="#000000">
            <path d="M24.8953432,117.547853 L24.8953432,81.915532 L33.7638319,81.915532 C36.8255874,81.915532 39.399007,82.3510338 41.4841681,83.2220504 C43.5693291,84.0930671 45.2453511,85.3467843 46.5122844,86.9832398 C47.7792177,88.6196953 48.6898124,90.5860519 49.2440957,92.8823685 C49.798379,95.178685 50.0755165,97.7521047 50.0755165,100.602705 C50.0755165,103.717249 49.6796058,106.356654 48.8877725,108.520998 C48.0959392,110.685342 47.0401773,112.440547 45.7204551,113.786663 C44.4007329,115.13278 42.8962722,116.096163 41.2070278,116.67684 C39.5177834,117.257518 37.7757763,117.547853 35.9809541,117.547853 L24.8953432,117.547853 Z M12.4636225,71.4633846 L12.4636225,128 L36.8519664,128 C41.1806551,128 44.9418069,127.274164 48.1355346,125.822469 C51.3292623,124.370775 53.9950611,122.378024 56.133011,119.844158 C58.2709609,117.310291 59.8678008,114.30137 60.9235785,110.817303 C61.9793563,107.333237 62.5072372,103.532494 62.5072372,99.4149606 C62.5072372,94.7167496 61.8605831,90.6256722 60.5672553,87.1416057 C59.2739276,83.6575391 57.4791324,80.7541939 55.1828158,78.4314829 C52.8864992,76.1087718 50.1679123,74.3667647 47.0269735,73.2054092 C43.8860347,72.0440537 40.4943996,71.4633846 36.8519664,71.4633846 L12.4636225,71.4633846 Z M69.9504331,87.0624228 L69.9504331,128 L81.1944098,128 L81.1944098,109.550376 C81.1944098,107.702765 81.3791682,105.987152 81.7486904,104.403485 C82.1182126,102.819819 82.7384727,101.434131 83.6094893,100.246381 C84.480506,99.0586314 85.628647,98.1216427 87.053947,97.4353872 C88.4792469,96.7491317 90.2212541,96.406009 92.2800207,96.406009 C92.9662762,96.406009 93.6789155,96.4456001 94.4179599,96.5247835 C95.1570043,96.6039668 95.7904615,96.6963459 96.3183504,96.8019237 L96.3183504,86.3497763 C95.4209393,86.0858319 94.6027238,85.9538617 93.8636794,85.9538617 C92.4383794,85.9538617 91.065889,86.165014 89.7461668,86.5873251 C88.4264446,87.0096362 87.1859244,87.6035023 86.0245688,88.3689412 C84.8632133,89.13438 83.8338455,90.0581717 82.9364344,91.1403439 C82.0390233,92.2225161 81.326384,93.3970512 80.7984952,94.6639845 L80.6401293,94.6639845 L80.6401293,87.0624228 L69.9504331,87.0624228 Z M100.277497,99.6525094 C100.435864,97.013065 101.095715,94.8223591 102.25707,93.0803258 C103.418426,91.3382925 104.896493,89.939408 106.691315,88.8836303 C108.486137,87.8278525 110.505282,87.0756222 112.748809,86.6269166 C114.992337,86.1782111 117.249028,85.9538617 119.51895,85.9538617 C121.577717,85.9538617 123.662847,86.0990289 125.774402,86.3893678 C127.885958,86.6797067 129.812723,87.2471787 131.554756,88.0918009 C133.29679,88.9364231 134.722068,90.1109582 135.830635,91.6154415 C136.939201,93.1199248 137.493476,95.1126754 137.493476,97.5937531 L137.493476,118.893963 C137.493476,120.741574 137.599053,122.509975 137.810208,124.199219 C138.021364,125.888464 138.39088,127.155378 138.918769,128 L127.516427,128 C127.305271,127.366533 127.13371,126.719879 127.001738,126.060018 C126.869765,125.400157 126.777386,124.727109 126.724597,124.040853 C124.929775,125.888464 122.818251,127.181773 120.389963,127.920817 C117.961674,128.659861 115.480633,129.029378 112.946767,129.029378 C110.993578,129.029378 109.172389,128.791832 107.483144,128.316732 C105.7939,127.841632 104.315833,127.102598 103.0489,126.09961 C101.781967,125.096621 100.79219,123.829706 100.07954,122.298829 C99.3668898,120.767951 99.0105701,118.946762 99.0105701,116.835206 C99.0105701,114.512495 99.4196779,112.598927 100.237906,111.094443 C101.056133,109.58996 102.111895,108.389031 103.405223,107.49162 C104.698551,106.594209 106.176617,105.921161 107.839467,105.472455 C109.502317,105.02375 111.178339,104.66743 112.867584,104.403485 C114.556828,104.139541 116.219653,103.928389 117.856109,103.770022 C119.492564,103.611655 120.944237,103.374109 122.21117,103.057376 C123.478103,102.740642 124.481077,102.278746 125.220122,101.671674 C125.959166,101.064602 126.302289,100.180401 126.2495,99.0190459 C126.2495,97.8049015 126.051544,96.8415188 125.655628,96.1288688 C125.259711,95.4162188 124.73183,94.8619438 124.071969,94.4660271 C123.412108,94.0701105 122.646681,93.80617 121.775664,93.6741978 C120.904647,93.5422256 119.967659,93.4762405 118.96467,93.4762405 C116.747536,93.4762405 115.005529,93.9513333 113.738596,94.9015333 C112.471663,95.8517333 111.732629,97.4353761 111.521474,99.6525094 L100.277497,99.6525094 Z M126.2495,107.966718 C125.7744,108.389029 125.180534,108.718954 124.467884,108.956504 C123.755234,109.194054 122.989806,109.39201 122.171579,109.550376 C121.353351,109.708743 120.495544,109.840713 119.598133,109.946291 C118.700722,110.051869 117.803324,110.183839 116.905913,110.342206 C116.061291,110.500572 115.229879,110.711725 114.411651,110.975669 C113.593423,111.239613 112.880784,111.595933 112.273712,112.044639 C111.666639,112.493344 111.17835,113.060816 110.808827,113.747072 C110.439305,114.433327 110.254547,115.304331 110.254547,116.360109 C110.254547,117.363097 110.439305,118.207707 110.808827,118.893963 C111.17835,119.580218 111.679837,120.121296 112.313303,120.517213 C112.94677,120.913129 113.685803,121.190267 114.530425,121.348633 C115.375048,121.507 116.246051,121.586182 117.143462,121.586182 C119.360595,121.586182 121.076209,121.216666 122.290353,120.477621 C123.504497,119.738577 124.401895,118.854376 124.982573,117.824993 C125.56325,116.79561 125.91957,115.753045 126.051542,114.697267 C126.183515,113.641489 126.2495,112.79688 126.2495,112.163413 L126.2495,107.966718 Z M193.000714,128 L205.907532,87.0624228 L194.346824,87.0624228 L186.824445,114.77645 L186.666079,114.77645 L179.697981,87.0624228 L168.770736,87.0624228 L161.961003,114.855633 L161.802637,114.855633 L154.280259,87.0624228 L142.402818,87.0624228 L155.38882,128 L167.028711,128 L173.996809,100.523522 L174.155175,100.523522 L181.440005,128 L193.000714,128 Z M206.778544,115.805828 L206.778544,128 L219.210265,128 L219.210265,115.805828 L206.778544,115.805828 Z" id="Draw." sketch:type="MSShapeGroup"></path>
            <path d="M50.154735,23.467258 L62.190551,23.467258 C61.8210285,20.1943443 60.9236301,17.2909967 59.498329,14.757128 C58.0730279,12.2232593 56.2650341,10.0985367 54.0742935,8.3828965 C51.8835529,6.66725626 49.4025104,5.36074982 46.6310915,4.463338 C43.8596726,3.56592618 40.9167339,3.117227 37.802187,3.117227 C33.4734947,3.117227 29.5803695,3.88265501 26.1226945,5.413534 C22.6650195,6.94441299 19.7484749,9.05593854 17.372973,11.748174 C14.9974711,14.4404095 13.1762803,17.5945008 11.909346,21.2105425 C10.6424117,24.8265842 10.008954,28.7461036 10.008954,32.969218 C10.008954,37.0867546 10.6424117,40.9270917 11.909346,44.4903445 C13.1762803,48.0535973 14.9974711,51.1549005 17.372973,53.794347 C19.7484749,56.4337935 22.6650195,58.505728 26.1226945,60.0102125 C29.5803695,61.514697 33.4734947,62.266928 37.802187,62.266928 C41.2862564,62.266928 44.4799388,61.7390466 47.38333,60.683268 C50.2867212,59.6274894 52.8205518,58.0966334 54.984898,56.090654 C57.1492442,54.0846746 58.8912527,51.6564203 60.210976,48.805818 C61.5306993,45.9552157 62.3489154,42.7615334 62.665649,39.224675 L50.629833,39.224675 C50.1547326,43.025478 48.8482262,46.0871901 46.7102745,48.409903 C44.5723228,50.7326159 41.60299,51.893955 37.802187,51.893955 C35.0043737,51.893955 32.6289074,51.3528766 30.675717,50.2707035 C28.7225266,49.1885304 27.1388824,47.7500536 25.924737,45.95523 C24.7105916,44.1604064 23.8263903,42.1412601 23.2721065,39.8977305 C22.7178227,37.6542009 22.440685,35.3447199 22.440685,32.969218 C22.440685,30.4881383 22.7178227,28.0862779 23.2721065,25.763565 C23.8263903,23.4408521 24.7105916,21.3689176 25.924737,19.5476995 C27.1388824,17.7264814 28.7225266,16.2748076 30.675717,15.1926345 C32.6289074,14.1104614 35.0043737,13.569383 37.802187,13.569383 C39.333066,13.569383 40.7979368,13.8201267 42.1968435,14.3216215 C43.5957502,14.8231163 44.8494685,15.5225592 45.958036,16.419971 C47.0666035,17.3173828 47.990396,18.3599486 48.729441,19.5476995 C49.468486,20.7354504 49.9435793,22.0419569 50.154735,23.467258 L50.154735,23.467258 Z M79.927543,40.570786 C79.927543,38.9343292 80.0859074,37.3242909 80.402641,35.740623 C80.7193746,34.1569551 81.260453,32.7580694 82.0258925,31.543924 C82.791332,30.3297786 83.8075037,29.340001 85.074438,28.5745615 C86.3413723,27.809122 87.9250165,27.426408 89.825418,27.426408 C91.7258195,27.426408 93.3226607,27.809122 94.6159895,28.5745615 C95.9093183,29.340001 96.938687,30.3297786 97.7041265,31.543924 C98.469566,32.7580694 99.0106444,34.1569551 99.327378,35.740623 C99.6441116,37.3242909 99.802476,38.9343292 99.802476,40.570786 C99.802476,42.2072428 99.6441116,43.804084 99.327378,45.3613575 C99.0106444,46.918631 98.469566,48.3175166 97.7041265,49.5580565 C96.938687,50.7985964 95.9093183,51.788374 94.6159895,52.527419 C93.3226607,53.266464 91.7258195,53.635981 89.825418,53.635981 C87.9250165,53.635981 86.3413723,53.266464 85.074438,52.527419 C83.8075037,51.788374 82.791332,50.7985964 82.0258925,49.5580565 C81.260453,48.3175166 80.7193746,46.918631 80.402641,45.3613575 C80.0859074,43.804084 79.927543,42.2072428 79.927543,40.570786 L79.927543,40.570786 Z M68.683557,40.570786 C68.683557,43.8436997 69.1850443,46.7998355 70.188034,49.439282 C71.1910237,52.0787285 72.6163034,54.3354215 74.463916,56.2094285 C76.3115286,58.0834355 78.5286304,59.5219123 81.115288,60.524902 C83.7019456,61.5278917 86.6052932,62.029379 89.825418,62.029379 C93.0455428,62.029379 95.9620874,61.5278917 98.5751395,60.524902 C101.188192,59.5219123 103.41849,58.0834355 105.266103,56.2094285 C107.113716,54.3354215 108.538995,52.0787285 109.541985,49.439282 C110.544975,46.7998355 111.046462,43.8436997 111.046462,40.570786 C111.046462,37.2978723 110.544975,34.3285395 109.541985,31.6626985 C108.538995,28.9968575 107.113716,26.7269675 105.266103,24.8529605 C103.41849,22.9789535 101.188192,21.5272796 98.5751395,20.4978955 C95.9620874,19.4685114 93.0455428,18.953827 89.825418,18.953827 C86.6052932,18.953827 83.7019456,19.4685114 81.115288,20.4978955 C78.5286304,21.5272796 76.3115286,22.9789535 74.463916,24.8529605 C72.6163034,26.7269675 71.1910237,28.9968575 70.188034,31.6626985 C69.1850443,34.3285395 68.683557,37.2978723 68.683557,40.570786 L68.683557,40.570786 Z M118.331298,20.062389 L118.331298,61 L129.575284,61 L129.575284,39.541407 C129.575284,35.3710815 130.26153,32.3753546 131.634042,30.5541365 C133.006554,28.7329184 135.223656,27.822323 138.285414,27.822323 C140.977649,27.822323 142.851628,28.6537362 143.907407,30.3165875 C144.963186,31.9794388 145.491067,34.5000724 145.491067,37.878564 L145.491067,61 L156.735053,61 L156.735053,35.819806 C156.735053,33.2859373 156.510703,30.9764563 156.061998,28.8912935 C155.613292,26.8061307 154.834667,25.0377281 153.726099,23.5860325 C152.617531,22.1343369 151.099872,20.9993919 149.173077,20.1811635 C147.246281,19.3629351 144.778435,18.953827 141.769466,18.953827 C139.393964,18.953827 137.071286,19.4949054 134.801362,20.5770785 C132.531438,21.6592516 130.683853,23.3880631 129.258552,25.763565 L129.021003,25.763565 L129.021003,20.062389 L118.331298,20.062389 Z M193.159233,34.473695 L204.16567,34.473695 C204.007303,31.8342485 203.373846,29.5511615 202.265278,27.6243655 C201.15671,25.6975695 199.718234,24.0875313 197.949805,22.7942025 C196.181375,21.5008737 194.175426,20.5374902 191.931897,19.904023 C189.688367,19.2705558 187.352492,18.953827 184.924201,18.953827 C181.598498,18.953827 178.642363,19.5081025 176.055705,20.61667 C173.469047,21.7252375 171.27834,23.2692906 169.483516,25.2488755 C167.688692,27.2284604 166.329398,29.5775326 165.405592,32.2961625 C164.481785,35.0147924 164.019889,37.9577312 164.019889,41.125067 C164.019889,44.186825 164.521376,46.9977934 165.524366,49.5580565 C166.527356,52.1183196 167.926241,54.3222244 169.721065,56.169837 C171.515889,58.0174496 173.693399,59.4559264 176.253663,60.4853105 C178.813926,61.5146946 181.624894,62.029379 184.686652,62.029379 C190.123912,62.029379 194.58451,60.6040993 198.068579,57.753497 C201.552648,54.9028947 203.664174,50.7590259 204.403219,45.321766 L193.555148,45.321766 C193.185625,47.8556347 192.27503,49.874781 190.823335,51.3792655 C189.371639,52.88375 187.299704,53.635981 184.607469,53.635981 C182.865434,53.635981 181.387366,53.24007 180.173221,52.448236 C178.959076,51.656402 177.995692,50.6402304 177.283042,49.3996905 C176.570391,48.1591506 176.055707,46.773462 175.738973,45.242583 C175.422239,43.711704 175.263875,42.2072421 175.263875,40.729152 C175.263875,39.198273 175.422239,37.65422 175.738973,36.0969465 C176.055707,34.539673 176.596785,33.1143933 177.362225,31.8210645 C178.127664,30.5277357 179.117442,29.4719729 180.331587,28.6537445 C181.545732,27.8355161 183.050194,27.426408 184.845018,27.426408 C189.648811,27.426408 192.420188,29.7754802 193.159233,34.473695 L193.159233,34.473695 Z M238.293543,36.136538 L220.00227,36.136538 C220.055059,35.344704 220.22662,34.4473057 220.516959,33.444316 C220.807299,32.4413263 221.308786,31.4911398 222.021436,30.593728 C222.734087,29.6963162 223.684274,28.9440852 224.872024,28.3370125 C226.059775,27.7299398 227.55104,27.426408 229.345864,27.426408 C232.090888,27.426408 234.136429,28.1654419 235.482546,29.643532 C236.828664,31.1216221 237.765654,33.2859357 238.293543,36.136538 L238.293543,36.136538 Z M220.00227,43.263008 L249.537529,43.263008 C249.748685,40.0956722 249.484744,37.0603542 248.745699,34.156963 C248.006654,31.2535718 246.805724,28.666953 245.142873,26.397029 C243.480021,24.127105 241.355299,22.3191112 238.768641,20.9729935 C236.181983,19.6268758 233.146665,18.953827 229.662596,18.953827 C226.548049,18.953827 223.710687,19.5081025 221.150424,20.61667 C218.59016,21.7252375 216.386256,23.2428965 214.538643,25.1696925 C212.69103,27.0964885 211.265751,29.3795755 210.262761,32.019022 C209.259771,34.6584685 208.758284,37.509028 208.758284,40.570786 C208.758284,43.7381218 209.246574,46.6414695 210.22317,49.280916 C211.199765,51.9203625 212.585453,54.1902525 214.380277,56.090654 C216.175101,57.9910555 218.365808,59.4559264 220.952466,60.4853105 C223.539124,61.5146946 226.442471,62.029379 229.662596,62.029379 C234.308022,62.029379 238.267132,60.9736162 241.540046,58.862059 C244.81296,56.7505018 247.241214,53.2400905 248.824882,48.33072 L238.927007,48.33072 C238.557484,49.5976543 237.55451,50.7985845 235.918053,51.9335465 C234.281596,53.0685085 232.328435,53.635981 230.058511,53.635981 C226.891175,53.635981 224.462921,52.8177648 222.773675,51.181308 C221.084429,49.5448512 220.160637,46.9054442 220.00227,43.263008 L220.00227,43.263008 Z M276.855664,53.635981 C275.06084,53.635981 273.529984,53.266464 272.26305,52.527419 C270.996116,51.788374 269.979944,50.8249904 269.214505,49.6372395 C268.449065,48.4494886 267.89479,47.0637999 267.551662,45.480132 C267.208533,43.8964641 267.036972,42.2864258 267.036972,40.649969 C267.036972,38.9607232 267.195336,37.3242909 267.51207,35.740623 C267.828804,34.1569551 268.369882,32.7580694 269.135322,31.543924 C269.900761,30.3297786 270.903736,29.340001 272.144276,28.5745615 C273.384815,27.809122 274.928868,27.426408 276.776481,27.426408 C278.571305,27.426408 280.088964,27.809122 281.329504,28.5745615 C282.570043,29.340001 283.586215,30.3429756 284.378049,31.5835155 C285.169883,32.8240554 285.737355,34.2361381 286.080484,35.819806 C286.423612,37.4034739 286.595173,39.0135122 286.595173,40.649969 C286.595173,42.2864258 286.436809,43.8964641 286.120075,45.480132 C285.803341,47.0637999 285.262263,48.4494886 284.496824,49.6372395 C283.731384,50.8249904 282.728409,51.788374 281.48787,52.527419 C280.24733,53.266464 278.703277,53.635981 276.855664,53.635981 L276.855664,53.635981 Z M256.188901,20.062389 L256.188901,75.332123 L267.432887,75.332123 L267.432887,55.932288 L267.591253,55.932288 C268.963765,57.9382674 270.718971,59.4559264 272.856922,60.4853105 C274.994874,61.5146946 277.330749,62.029379 279.864618,62.029379 C282.873587,62.029379 285.499797,61.4487095 287.743327,60.287353 C289.986856,59.1259965 291.860835,57.5687464 293.36532,55.615556 C294.869804,53.6623656 295.991552,51.4188697 296.730597,48.885001 C297.469642,46.3511323 297.839159,43.7117254 297.839159,40.966701 C297.839159,38.0633098 297.469642,35.2787355 296.730597,32.6128945 C295.991552,29.9470535 294.856607,27.6111784 293.325728,25.605199 C291.794849,23.5992196 289.868082,21.9891814 287.545369,20.775036 C285.222656,19.5608906 282.451279,18.953827 279.231154,18.953827 C276.697285,18.953827 274.374607,19.4553143 272.26305,20.458304 C270.151493,21.4612937 268.409484,23.0713319 267.036972,25.288467 L266.878606,25.288467 L266.878606,20.062389 L256.188901,20.062389 Z M318.822654,20.062389 L318.822654,7.789024 L307.578668,7.789024 L307.578668,20.062389 L300.76893,20.062389 L300.76893,27.584774 L307.578668,27.584774 L307.578668,51.735589 C307.578668,53.7943573 307.921791,55.4571837 308.608047,56.724118 C309.294303,57.9910523 310.231293,58.9676329 311.419044,59.653889 C312.606794,60.3401451 313.979286,60.8020413 315.53656,61.0395915 C317.093833,61.2771417 318.743462,61.395915 320.485497,61.395915 C321.594065,61.395915 322.72901,61.3695209 323.890366,61.316732 C325.051722,61.2639431 326.107485,61.1583668 327.057686,61 L327.057686,52.28987 C326.529797,52.3954479 325.975521,52.4746301 325.394843,52.527419 C324.814165,52.5802079 324.207101,52.606602 323.573634,52.606602 C321.673232,52.606602 320.406317,52.2898732 319.77285,51.656406 C319.139383,51.0229388 318.822654,49.7560235 318.822654,47.855622 L318.822654,27.584774 L327.057686,27.584774 L327.057686,20.062389 L318.822654,20.062389 Z" id="Type-something" sketch:type="MSShapeGroup"></path>
            <text id="space" sketch:type="MSTextLayer" font-family="Helvetica Neue" font-size="36" font-weight="260">
                <tspan x="344" y="194">space</tspan>
            </text>
        </g>
    </g>
</svg>